<svg width="144" height="36" viewBox="0 0 144 36" fill="none" xmlns="http://www.w3.org/2000/svg">
<path d="M74.1579 24.6172H76.8118V11.8483H74.1579V24.6172Z" fill="white"/>
<path d="M77.2764 7.94231C77.2764 6.95356 76.474 6.15118 75.4853 6.15118C74.4965 6.15118 73.6933 6.95356 73.6933 7.94231C73.6933 8.93106 74.4965 9.73431 75.4853 9.73431C76.474 9.73431 77.2764 8.93106 77.2764 7.94231Z" fill="white"/>
<path d="M79.6801 6.59766H82.3339V24.6165H79.6801V6.59766Z" fill="white"/>
<path fill-rule="evenodd" clip-rule="evenodd" d="M71.2898 24.6059H68.6806V23.2094C67.7461 24.2681 66.0993 24.9331 64.5506 24.9331C60.8458 24.9331 57.8384 21.9257 57.8384 18.221C57.8384 14.5171 60.8458 11.5089 64.5506 11.5089C66.0993 11.5089 67.6594 12.0925 68.6806 13.1241V11.837H71.2898V24.6059ZM64.6354 14.1916C66.9192 14.1916 68.7164 15.8261 68.7164 18.221C68.7164 20.6167 66.9192 22.2652 64.6354 22.2652C62.3508 22.2652 60.6148 20.5056 60.6148 18.221C60.6148 15.9372 62.3508 14.1916 64.6354 14.1916Z" fill="white"/>
<path d="M35.7533 24.6058H38.3617V17.1403C38.3617 15.4735 39.717 14.1181 41.3839 14.1181C43.0499 14.1181 44.4062 15.4735 44.4062 17.1403V24.6058H47.0145V17.1403C47.0145 15.4735 48.3699 14.1181 50.0368 14.1181C51.7028 14.1181 53.059 15.4735 53.059 17.1403V24.6058H55.6674V17.1403C55.6674 13.7103 53.4458 11.5089 50.1864 11.5089C48.4487 11.5089 46.7442 12.3007 45.7099 13.5406C44.764 12.2876 43.3842 11.5089 41.5335 11.5089C40.0268 11.5115 38.9409 12.1844 38.3617 12.7286V11.837H35.7533V24.6058Z" fill="white"/>
<path d="M18.2114 18C18.2114 20.3223 16.3223 22.2114 14 22.2114C11.6778 22.2114 9.78863 20.3223 9.78863 18C9.78863 15.6777 11.6778 13.7886 14 13.7886C16.3223 13.7886 18.2114 15.6777 18.2114 18ZM14 4C6.28075 4 0 10.2808 0 18C0 25.7192 6.28075 32 14 32C16.828 32 19.5554 31.1582 21.8864 29.5649L21.9266 29.5369L20.0401 27.3441L20.0086 27.3651C18.214 28.5192 16.1359 29.13 14 29.13C7.86275 29.13 2.87 24.1372 2.87 18C2.87 11.8628 7.86275 6.87 14 6.87C20.1373 6.87 25.13 11.8628 25.13 18C25.13 18.7954 25.0416 19.6004 24.8675 20.3922C24.5158 21.8369 23.5043 22.2796 22.7448 22.221C21.9809 22.1589 21.0875 21.6146 21.0814 20.2829V19.2679V18C21.0814 14.0949 17.9051 10.9186 14 10.9186C10.0949 10.9186 6.91863 14.0949 6.91863 18C6.91863 21.9051 10.0949 25.0814 14 25.0814C15.897 25.0814 17.6759 24.3394 19.0173 22.991C19.7969 24.2046 21.0683 24.9659 22.5146 25.0814C22.6389 25.0919 22.7658 25.0971 22.8918 25.0971C23.9094 25.0971 24.9191 24.7567 25.7329 24.1381C26.572 23.5011 27.1985 22.5797 27.545 21.4729C27.6001 21.2944 27.7016 20.8849 27.7025 20.8823L27.7051 20.8674C27.909 19.9793 28 19.0938 28 18C28 10.2808 21.7193 4 14 4" fill="#FF9E00"/>
<path d="M93 12V23H94L94 12H93Z" fill="white" fill-opacity="0.48"/>
<path d="M105.406 14.2203H107.27V15.4205H105.406V20.4613H104.022V15.4205H103V14.2203H104.022V13.8963C104.022 13.2802 104.199 12.8121 104.552 12.4921C104.912 12.164 105.43 12 106.103 12H107.27L107.39 13.2002H106.103C105.638 13.2002 105.406 13.4322 105.406 13.8963V14.2203Z" fill="white" fill-opacity="0.48"/>
<path d="M108.385 20.4613V14.2203H109.419L109.684 15.1205C109.884 14.7924 110.121 14.5604 110.394 14.4244C110.674 14.2883 111.011 14.2203 111.404 14.2203H111.668L111.789 15.5405H110.995C110.177 15.5405 109.768 15.9526 109.768 16.7767V20.4613H108.385Z" fill="white" fill-opacity="0.48"/>
<path fill-rule="evenodd" clip-rule="evenodd" d="M113.736 20.1732C114.249 20.4453 114.826 20.5813 115.468 20.5813C116.109 20.5813 116.683 20.4453 117.188 20.1732C117.701 19.8932 118.098 19.5091 118.379 19.0211C118.667 18.525 118.812 17.9649 118.812 17.3408C118.812 16.7167 118.667 16.1606 118.379 15.6726C118.098 15.1765 117.701 14.7924 117.188 14.5204C116.683 14.2403 116.109 14.1003 115.468 14.1003C114.826 14.1003 114.249 14.2403 113.736 14.5204C113.231 14.7924 112.834 15.1765 112.545 15.6726C112.264 16.1606 112.124 16.7167 112.124 17.3408C112.124 17.9649 112.264 18.525 112.545 19.0211C112.834 19.5091 113.231 19.8932 113.736 20.1732ZM116.839 18.781C116.486 19.1411 116.029 19.3211 115.468 19.3211C114.907 19.3211 114.45 19.1411 114.097 18.781C113.744 18.413 113.568 17.9329 113.568 17.3408C113.568 16.7487 113.744 16.2726 114.097 15.9126C114.45 15.5445 114.907 15.3605 115.468 15.3605C116.029 15.3605 116.486 15.5445 116.839 15.9126C117.192 16.2726 117.368 16.7487 117.368 17.3408C117.368 17.9329 117.192 18.413 116.839 18.781Z" fill="white" fill-opacity="0.48"/>
<path d="M119.798 14.2203H120.832L121.085 15.1085C121.253 14.8124 121.486 14.5724 121.782 14.3884C122.079 14.1963 122.436 14.1003 122.853 14.1003C123.27 14.1003 123.643 14.2003 123.971 14.4004C124.3 14.6004 124.545 14.8764 124.705 15.2285C124.857 14.9164 125.098 14.6524 125.427 14.4364C125.764 14.2123 126.161 14.1003 126.618 14.1003C127.051 14.1003 127.435 14.2123 127.772 14.4364C128.117 14.6524 128.382 14.9564 128.566 15.3485C128.759 15.7326 128.855 16.1726 128.855 16.6687V20.4613H127.472V16.8007C127.472 16.3687 127.359 16.0166 127.135 15.7446C126.91 15.4725 126.618 15.3365 126.257 15.3365C125.896 15.3365 125.599 15.4765 125.367 15.7566C125.134 16.0286 125.018 16.3767 125.018 16.8007V20.4613H123.635V16.8007C123.635 16.3687 123.522 16.0166 123.298 15.7446C123.073 15.4725 122.781 15.3365 122.42 15.3365C122.059 15.3365 121.762 15.4765 121.53 15.7566C121.297 16.0286 121.181 16.3767 121.181 16.8007V20.4613H119.798V14.2203Z" fill="white" fill-opacity="0.48"/>
<path fill-rule="evenodd" clip-rule="evenodd" d="M138.733 23H138.234C135.776 23 134.536 23 133.77 22.2317C133 21.459 133 20.2209 133 17.7447V17.2376C133 14.7934 133 13.5563 133.77 12.7923C134.544 12.0239 135.79 12.0239 138.276 12.0239H138.733C141.219 12.0239 142.464 12.0239 143.234 12.7923C144 13.565 144 14.8031 144 17.2792V17.7447C144 20.2164 144 21.459 143.234 22.2317C142.464 23 141.219 23 138.733 23ZM134.857 15.365C134.914 18.2188 136.419 19.9355 138.9 19.9355H139.05V18.3022C139.952 18.3944 140.63 19.0662 140.902 19.9355H142.205C141.853 18.6359 140.933 17.9159 140.366 17.6437C140.933 17.3056 141.738 16.4802 141.928 15.365H140.744C140.498 16.2739 139.758 17.0949 139.05 17.1739V15.365H137.844V18.5305C137.11 18.3505 136.155 17.4593 136.115 15.365H134.857Z" fill="white" fill-opacity="0.48"/>
</svg>
